<svg xmlns="http://www.w3.org/2000/svg" viewBox="-10 -10 814.57 435" role="img" aria-label="Mural Me"><g transform="translate(208.19480519480524 -59.09090909090909) scale(1.4772727272727273)"><path fill="#FFFFFF" d="M40 40H88V188L40 216Z"/><path fill="#1B8A9A" d="M88 40L128 80V136L88 96Z"/><path fill="#F26B2A" d="M128 80L168 40H216V216L168 188V96L128 136Z"/></g><path fill="#FFFFFF" d="M26.14 415L0 415L0 315L23.29 315L58.43 372.71L92.71 315L116 315L116.29 415L90.29 415L90 362L64.29 405.14L51.71 405.14L26.14 363.43L26.14 415M181 417L181 417Q158.86 417 146.43 404.86Q134 392.71 134 370.43L134 370.43L134 315L162.29 315L162.29 369.57Q162.29 382.43 167.36 388Q172.43 393.57 181.29 393.57L181.29 393.57Q190.14 393.57 195.14 388Q200.14 382.43 200.14 369.57L200.14 369.57L200.14 315L228 315L228 370.43Q228 392.71 215.57 404.86Q203.14 417 181 417M274 415L245.71 415L245.71 315L290.43 315Q312.29 315 324.07 324.93Q335.86 334.86 335.86 352L335.86 352Q335.86 363.29 330.43 371.43L330.43 371.43Q325.29 379.29 316.29 383.57L316.29 383.57L337.86 415L307.57 415L289.43 388.43L274 388.43L274 415M274 337.29L274 366.57L289.71 366.57Q298.57 366.57 302.93 362.71Q307.29 358.86 307.29 352L307.29 352Q307.29 345 302.93 341.14Q298.57 337.29 289.71 337.29L289.71 337.29L274 337.29M366.86 415L338 415L382.14 315L410 315L454.29 415L424.86 415L417 395.57L374.71 395.57L366.86 415M383 374.71L408.71 374.71L395.86 342.71L383 374.71M536.86 415L460.86 415L460.86 315L489.14 315L489.14 392.57L536.86 392.57L536.86 415"/><path fill="#FFFFFF" d="M597.57 415L587.43 415L587.43 315L596.14 315L639.57 389.14L682.57 315L691.29 315L691.29 415L681.14 415L681.14 335L641.86 402.29L636.86 402.29L597.57 335.43L597.57 415M794.57 415L723.86 415L723.86 315L792.43 315L792.43 324.14L734.43 324.14L734.43 359.71L786.14 359.71L786.14 368.71L734.43 368.71L734.43 405.86L794.57 405.86L794.57 415"/></svg>
